# xmcd
#
# Track frame offsets:
#	150
#	18807
#	32915
#	49897
#	65744
#	82723
#	96399
#	113496
#	128008
#	147022
#	160968
#	182846
#	199749
#	214848
#	231602
#	249402
#	266757
#
# Disc length: 3743 seconds
#
# Revision: 6
# Processed by: cddbd v1.5.2PL0 Copyright (c) Steve Scherf et al.
# Submitted via: dBpowerAMP V4.0
#
DISCID=ef0e9d11
DTITLE=Various Artist - Promo Only - Country Radio 2003-02
DYEAR=2003
DGENRE=Country
TTITLE0=Tim McGraw - She's My Kind of Rain
TTITLE1=Rascal Flatts - Love You Out Loud
TTITLE2=Toby Keith - Rock You Baby
TTITLE3=Phil Vassar - This Is God
TTITLE4=Jessica Andrews - There's More To Me Than You
TTITLE5=John Michael Montgomery - Country Thang
TTITLE6=Jo Dee Messina - Was That My Life
TTITLE7=Sammy Kershaw - I Want My Money Back
TTITLE8=Holly Lamar - Unkissed
TTITLE9=Anthony Smith - Half a Man
TTITLE10=Steve Wariner - Snowfall on The Sand
TTITLE11=Radney Foster ft Georgia Middleman - Scary Old World
TTITLE12=Pam Tillis - So Wrong
TTITLE13=Eric Heatherly - Sometimes It's Just Your Time
TTITLE14=Willie Nelson ft Jon Bon Jovi and Richie Sambora - Always On My Mind
TTITLE15=Jamie Lee Thurston - It Can All Be Gone
TTITLE16=Leland Martin - Hey Love, No Fair
EXTD=
EXTT0=
EXTT1=
EXTT2=
EXTT3=
EXTT4=
EXTT5=
EXTT6=
EXTT7=
EXTT8=
EXTT9=
EXTT10=
EXTT11=
EXTT12=
EXTT13=
EXTT14=
EXTT15=
EXTT16=
PLAYORDER=
